<svg width="227" height="44" viewBox="0 0 227 44" fill="none" xmlns="http://www.w3.org/2000/svg">
<path d="M0.12 43V0.879997H18.32V7.172H9.428V17.78H17.176V24.28H9.428V43H0.12ZM34.7309 43.624C31.5762 43.624 29.0802 43.0693 27.2429 41.96C25.4055 40.8507 24.0882 39.256 23.2909 37.176C22.4935 35.096 22.0949 32.6173 22.0949 29.74V14.088C22.0949 11.176 22.4935 8.69733 23.2909 6.652C24.0882 4.60667 25.4055 3.04667 27.2429 1.972C29.0802 0.862665 31.5762 0.307998 34.7309 0.307998C37.9202 0.307998 40.4335 0.862665 42.2709 1.972C44.1429 3.04667 45.4775 4.60667 46.2749 6.652C47.0722 8.69733 47.4709 11.176 47.4709 14.088V29.74C47.4709 32.6173 47.0722 35.096 46.2749 37.176C45.4775 39.256 44.1429 40.8507 42.2709 41.96C40.4335 43.0693 37.9202 43.624 34.7309 43.624ZM34.7309 37.02C35.7015 37.02 36.4122 36.7773 36.8629 36.292C37.3135 35.8067 37.6082 35.1827 37.7469 34.42C37.8855 33.6573 37.9549 32.8773 37.9549 32.08V11.8C37.9549 10.968 37.8855 10.188 37.7469 9.46C37.6082 8.69733 37.3135 8.07333 36.8629 7.588C36.4122 7.10266 35.7015 6.86 34.7309 6.86C33.8295 6.86 33.1535 7.10266 32.7029 7.588C32.2522 8.07333 31.9575 8.69733 31.8189 9.46C31.6802 10.188 31.6109 10.968 31.6109 11.8V32.08C31.6109 32.8773 31.6629 33.6573 31.7669 34.42C31.9055 35.1827 32.1829 35.8067 32.5989 36.292C33.0495 36.7773 33.7602 37.02 34.7309 37.02ZM62.4436 43.52C60.2596 43.52 58.3876 43.1213 56.8276 42.324C55.3023 41.5267 54.1236 40.3827 53.2916 38.892C52.4596 37.4013 52.0436 35.5987 52.0436 33.484V22.46C52.0436 20.3107 52.4596 18.4907 53.2916 17C54.1236 15.5093 55.3023 14.3827 56.8276 13.62C58.3876 12.8227 60.2596 12.424 62.4436 12.424C64.593 12.424 66.413 12.7533 67.9036 13.412C69.429 14.0707 70.5903 15.076 71.3876 16.428C72.185 17.7453 72.5836 19.4267 72.5836 21.472V24.644H64.4196V21.212C64.4196 20.4147 64.333 19.808 64.1596 19.392C64.021 18.9413 63.7956 18.6293 63.4836 18.456C63.2063 18.2827 62.8596 18.196 62.4436 18.196C62.0276 18.196 61.681 18.3173 61.4036 18.56C61.1263 18.768 60.9183 19.132 60.7796 19.652C60.641 20.1373 60.5716 20.8307 60.5716 21.732V34.212C60.5716 35.564 60.7276 36.4827 61.0396 36.968C61.3863 37.4533 61.8716 37.696 62.4956 37.696C62.9463 37.696 63.3103 37.6093 63.5876 37.436C63.865 37.228 64.073 36.916 64.2116 36.5C64.3503 36.0493 64.4196 35.46 64.4196 34.732V30.728H72.5836V34.368C72.5836 36.3787 72.1676 38.0773 71.3356 39.464C70.5383 40.816 69.377 41.8387 67.8516 42.532C66.361 43.1907 64.5583 43.52 62.4436 43.52ZM89.6278 43.624C86.4038 43.624 83.8732 43.104 82.0358 42.064C80.2332 40.9893 78.9678 39.4467 78.2398 37.436C77.5118 35.3907 77.1478 32.8947 77.1478 29.948V0.879997H86.3518V31.352C86.3518 32.2187 86.4212 33.0853 86.5598 33.952C86.6985 34.8187 86.9932 35.5293 87.4438 36.084C87.9292 36.6387 88.6572 36.916 89.6278 36.916C90.6332 36.916 91.3612 36.6387 91.8118 36.084C92.2625 35.5293 92.5398 34.8187 92.6438 33.952C92.7825 33.0853 92.8518 32.2187 92.8518 31.352V0.879997H102.108V29.948C102.108 32.8947 101.727 35.3907 100.964 37.436C100.236 39.4467 98.9705 40.9893 97.1678 42.064C95.3652 43.104 92.8518 43.624 89.6278 43.624ZM116.818 43.52C114.183 43.52 111.982 42.9307 110.214 41.752C108.481 40.5733 107.059 38.6493 105.95 35.98L111.722 33.432C112.277 34.784 112.918 35.8587 113.646 36.656C114.409 37.4187 115.241 37.8 116.142 37.8C116.801 37.8 117.286 37.6613 117.598 37.384C117.945 37.1067 118.118 36.7253 118.118 36.24C118.118 35.4427 117.806 34.7147 117.182 34.056C116.593 33.3973 115.518 32.4267 113.958 31.144L111.774 29.324C110.179 27.972 108.914 26.672 107.978 25.424C107.077 24.1413 106.626 22.564 106.626 20.692C106.626 19.0627 107.042 17.624 107.874 16.376C108.741 15.128 109.885 14.1573 111.306 13.464C112.727 12.7707 114.253 12.424 115.882 12.424C118.343 12.424 120.406 13.1 122.07 14.452C123.734 15.804 124.895 17.7107 125.554 20.172L120.094 22.668C119.886 22.0093 119.591 21.3507 119.21 20.692C118.829 20.0333 118.361 19.4787 117.806 19.028C117.286 18.5773 116.714 18.352 116.09 18.352C115.535 18.352 115.085 18.508 114.738 18.82C114.426 19.132 114.27 19.548 114.27 20.068C114.27 20.7267 114.634 21.4373 115.362 22.2C116.125 22.9627 117.165 23.8813 118.482 24.956L120.614 26.828C121.481 27.556 122.33 28.336 123.162 29.168C123.994 30 124.67 30.9187 125.19 31.924C125.745 32.9293 126.022 34.0733 126.022 35.356C126.022 37.0893 125.589 38.58 124.722 39.828C123.855 41.0413 122.711 41.96 121.29 42.584C119.903 43.208 118.413 43.52 116.818 43.52ZM130.069 43V0.879997H141.665C144.508 0.879997 146.969 1.192 149.049 1.816C151.129 2.44 152.741 3.56666 153.885 5.196C155.064 6.79066 155.653 9.06133 155.653 12.008C155.653 13.7413 155.515 15.284 155.237 16.636C154.96 17.988 154.44 19.1667 153.677 20.172C152.949 21.1427 151.892 21.9573 150.505 22.616L156.277 43H146.657L142.029 24.124H139.377V43H130.069ZM139.377 18.768H141.977C143.295 18.768 144.317 18.5427 145.045 18.092C145.773 17.6067 146.276 16.9307 146.553 16.064C146.865 15.1627 147.021 14.088 147.021 12.84C147.021 11.0373 146.692 9.63333 146.033 8.628C145.375 7.62266 144.161 7.12 142.393 7.12H139.377V18.768ZM161.249 43V0.879997H180.177V7.224H170.557V17.676H177.889V24.124H170.557V36.708H180.281V43H161.249ZM184.507 43V0.879997H203.435V7.224H193.815V17.676H201.147V24.124H193.815V36.708H203.539V43H184.507ZM207.765 43V0.879997H217.073V36.708H226.745V43H207.765Z" fill="#24A3FF"/>
</svg>
