<svg width="116" height="24" viewBox="0 0 116 24" fill="none" xmlns="http://www.w3.org/2000/svg">
<path d="M13.2834 11.884C14.6914 10.86 15.5554 9.26 15.5554 7.308C15.5554 3.724 12.6114 1.1 8.99536 1.1H0.0993598V23.5H9.69936C13.4114 23.5 16.4194 20.812 16.4194 17.1C16.4194 14.7 15.1714 12.876 13.2834 11.884ZM8.99536 4.556C10.6274 4.556 11.8754 5.836 11.8754 7.5C11.8754 9.164 10.6274 10.444 8.99536 10.444H3.77936V4.556H8.99536ZM9.69936 20.044H3.77936V13.772H9.69936C11.4274 13.772 12.7394 15.148 12.7394 16.908C12.7394 18.668 11.4274 20.044 9.69936 20.044ZM38.3789 23.916C42.5069 23.916 46.1549 21.804 48.0109 18.54L44.8109 16.716C43.6589 18.924 41.1949 20.332 38.3789 20.332C33.5469 20.332 30.3469 16.908 30.3469 12.3C30.3469 7.692 33.5469 4.268 38.3789 4.268C41.1949 4.268 43.6269 5.676 44.8109 7.884L48.0109 6.028C46.1229 2.764 42.4749 0.683998 38.3789 0.683998C31.5629 0.683998 26.6669 5.804 26.6669 12.3C26.6669 18.796 31.5629 23.916 38.3789 23.916ZM65.4719 1.1H49.1519V4.62H55.4879V23.5H59.1679V4.62H65.4719V1.1ZM67.8141 16.972H80.5501C80.6141 16.524 80.6781 16.012 80.6781 15.532C80.6781 10.924 77.4141 7.084 72.6461 7.084C67.6221 7.084 64.1981 10.764 64.1981 15.5C64.1981 20.3 67.6221 23.916 72.9021 23.916C76.0381 23.916 78.4381 22.604 79.9101 20.428L77.0621 18.764C76.2941 19.884 74.8541 20.748 72.9341 20.748C70.3741 20.748 68.3581 19.468 67.8141 16.972ZM67.7821 14.156C68.2621 11.756 70.0221 10.22 72.6141 10.22C74.6941 10.22 76.7101 11.404 77.1901 14.156H67.7821ZM91.1774 23.916C94.3134 23.916 97.0334 22.284 98.3774 19.756L95.4014 18.06C94.6334 19.532 93.0654 20.524 91.1454 20.524C88.3294 20.524 86.1854 18.38 86.1854 15.5C86.1854 12.62 88.3294 10.476 91.1454 10.476C93.0654 10.476 94.6334 11.436 95.3374 12.94L98.3134 11.212C97.0334 8.716 94.3134 7.084 91.1774 7.084C86.3454 7.084 82.7294 10.732 82.7294 15.5C82.7294 20.236 86.3454 23.916 91.1774 23.916ZM109.291 7.084C107.115 7.084 105.387 7.884 104.331 9.548V1.1H100.875V23.5H104.331V14.924C104.331 11.66 106.123 10.316 108.395 10.316C110.571 10.316 111.979 11.596 111.979 14.028V23.5H115.435V13.676C115.435 9.516 112.875 7.084 109.291 7.084Z" fill="#F5FBF2"/>
<path d="M21.4866 23.884C22.7986 23.884 23.8866 22.796 23.8866 21.484C23.8866 20.14 22.7986 19.084 21.4866 19.084C20.1426 19.084 19.0866 20.14 19.0866 21.484C19.0866 22.796 20.1426 23.884 21.4866 23.884Z" fill="#00E3A5"/>
</svg>
